<?xml version="1.0" standalone="no"?><!DOCTYPE svg PUBLIC "-//W3C//DTD SVG 1.1//EN" "http://www.w3.org/Graphics/SVG/1.1/DTD/svg11.dtd"><svg t="1535528526085" class="icon" style="" viewBox="0 0 1024 1024" version="1.1" xmlns="http://www.w3.org/2000/svg" p-id="2081" xmlns:xlink="http://www.w3.org/1999/xlink" width="200" height="200"><defs><style type="text/css"></style></defs><path d="M512 0a512 512 0 0 0 0 1024 42.666667 42.666667 0 0 0 0-85.333333 426.666667 426.666667 0 1 1 426.666667-426.666667v85.333333a85.333333 85.333333 0 1 1-169.386667 0V298.666667a42.666667 42.666667 0 0 0-85.333333 0v22.4a257.28 257.28 0 1 0 21.333333 359.253333A170.666667 170.666667 0 0 0 1024 597.333333v-85.333333A512 512 0 0 0 512 0z m0 683.946667A171.946667 171.946667 0 1 1 683.946667 512 172.16 172.16 0 0 1 512 683.946667z" fill="#3A3A3A" p-id="2082"></path></svg>